<svg width="24" height="24" viewBox="0 0 24 24" fill="none" xmlns="http://www.w3.org/2000/svg">
<path d="M17.8877 10.8957C19.2827 10.6997 20.3567 9.50375 20.3597 8.05475C20.3597 6.62675 19.3187 5.44275 17.9537 5.21875" stroke="#D4AF37" stroke-width="1.5" stroke-linecap="round" stroke-linejoin="round"/>
<path d="M19.7285 14.25C21.0795 14.452 22.0225 14.925 22.0225 15.9C22.0225 16.571 21.5785 17.007 20.8605 17.281" stroke="#D4AF37" stroke-width="1.5" stroke-linecap="round" stroke-linejoin="round"/>
<path fill-rule="evenodd" clip-rule="evenodd" d="M11.8867 14.6641C8.67273 14.6641 5.92773 15.1511 5.92773 17.0961C5.92773 19.0401 8.65573 19.5411 11.8867 19.5411C15.1007 19.5411 17.8447 19.0591 17.8447 17.1131C17.8447 15.1671 15.1177 14.6641 11.8867 14.6641Z" stroke="#D4AF37" stroke-width="1.5" stroke-linecap="round" stroke-linejoin="round"/>
<path fill-rule="evenodd" clip-rule="evenodd" d="M11.8874 11.888C13.9964 11.888 15.7064 10.179 15.7064 8.069C15.7064 5.96 13.9964 4.25 11.8874 4.25C9.77839 4.25 8.06839 5.96 8.06839 8.069C8.06039 10.171 9.75739 11.881 11.8594 11.888H11.8874Z" stroke="#D4AF37" stroke-width="1.5" stroke-linecap="round" stroke-linejoin="round"/>
<path d="M5.88509 10.8957C4.48909 10.6997 3.41609 9.50375 3.41309 8.05475C3.41309 6.62675 4.45409 5.44275 5.81909 5.21875" stroke="#D4AF37" stroke-width="1.5" stroke-linecap="round" stroke-linejoin="round"/>
<path d="M4.044 14.25C2.693 14.452 1.75 14.925 1.75 15.9C1.75 16.571 2.194 17.007 2.912 17.281" stroke="#D4AF37" stroke-width="1.5" stroke-linecap="round" stroke-linejoin="round"/>
</svg>
