<svg width="24" height="24" viewBox="0 0 24 24" fill="none" xmlns="http://www.w3.org/2000/svg">
<path fill-rule="evenodd" clip-rule="evenodd" d="M16.5144 21.4983H8.16653C5.10017 21.4983 2.74776 20.3908 3.41596 15.9331L4.19399 9.89192C4.60589 7.66766 6.02465 6.81641 7.2695 6.81641H17.448C18.7112 6.81641 20.0475 7.73174 20.5235 9.89192L21.3016 15.9331C21.8691 19.8874 19.5807 21.4983 16.5144 21.4983Z" stroke="#D4AF37" stroke-width="1.5" stroke-linecap="round" stroke-linejoin="round"/>
<path d="M16.6512 6.59774C16.6512 4.21167 14.7169 2.27738 12.3309 2.27738C11.1819 2.27251 10.0782 2.72554 9.26406 3.53629C8.44987 4.34704 7.99218 5.44873 7.99219 6.59774" stroke="#D4AF37" stroke-width="1.5" stroke-linecap="round" stroke-linejoin="round"/>
<path d="M15.2968 11.1016H15.251" stroke="#D4AF37" stroke-width="1.5" stroke-linecap="round" stroke-linejoin="round"/>
<path d="M9.46569 11.1016H9.41992" stroke="#D4AF37" stroke-width="1.5" stroke-linecap="round" stroke-linejoin="round"/>
</svg>
