<svg width="24" height="24" viewBox="0 0 24 24" fill="none" xmlns="http://www.w3.org/2000/svg">
<path d="M8.84863 12.3125V16.0575" stroke="#D4AF37" stroke-width="1.5" stroke-linecap="round" stroke-linejoin="round"/>
<path d="M10.7596 14.1875H6.93848" stroke="#D4AF37" stroke-width="1.5" stroke-linecap="round" stroke-linejoin="round"/>
<path d="M15.3659 12.4297H15.2588" stroke="#D4AF37" stroke-width="1.5" stroke-linecap="round" stroke-linejoin="round"/>
<path d="M17.1793 16.0039H17.0723" stroke="#D4AF37" stroke-width="1.5" stroke-linecap="round" stroke-linejoin="round"/>
<path d="M8.07227 2C8.07227 2.74048 8.68475 3.34076 9.44029 3.34076H10.4968C11.6624 3.34492 12.6065 4.27026 12.6118 5.41266V6.08771" stroke="#D4AF37" stroke-width="1.5" stroke-linecap="round" stroke-linejoin="round"/>
<path fill-rule="evenodd" clip-rule="evenodd" d="M16.4283 21.9642C13.4231 22.0151 10.473 22.013 7.57275 21.9642C4.3535 21.9642 2 19.668 2 16.5129V11.8633C2 8.70822 4.3535 6.412 7.57275 6.412C10.4889 6.36215 13.4411 6.36319 16.4283 6.412C19.6476 6.412 22 8.70926 22 11.8633V16.5129C22 19.668 19.6476 21.9642 16.4283 21.9642Z" stroke="#D4AF37" stroke-width="1.5" stroke-linecap="round" stroke-linejoin="round"/>
</svg>
