<svg width="24" height="24" viewBox="0 0 24 24" fill="none" xmlns="http://www.w3.org/2000/svg">
<path fill-rule="evenodd" clip-rule="evenodd" d="M17.857 20.417C19.73 20.417 21.249 18.899 21.25 17.026V17.024V14.324C20.013 14.324 19.011 13.322 19.01 12.085C19.01 10.849 20.012 9.846 21.249 9.846L21.25 7.146C21.252 5.272 19.735 3.752 17.862 3.75H17.856H6.144C4.27 3.75 2.751 5.268 2.75 7.142V9.933C3.944 9.891 4.945 10.825 4.987 12.019C4.988 12.041 4.989 12.063 4.989 12.085C4.99 13.32 3.991 14.322 2.756 14.324H2.75V17.024C2.749 18.897 4.268 20.417 6.141 20.417H6.142H17.857Z" stroke="#D4AF37" stroke-width="1.5" stroke-linecap="round" stroke-linejoin="round"/>
<path fill-rule="evenodd" clip-rule="evenodd" d="M12.3706 9.06303L12.9866 10.31C13.0466 10.432 13.1626 10.517 13.2976 10.537L14.6746 10.738C15.0156 10.788 15.1506 11.206 14.9046 11.445L13.9086 12.415C13.8106 12.51 13.7666 12.647 13.7886 12.782L14.0236 14.152C14.0816 14.491 13.7266 14.749 13.4226 14.589L12.1916 13.942C12.0706 13.878 11.9266 13.878 11.8056 13.942L10.5756 14.589C10.2706 14.749 9.9156 14.491 9.9736 14.152L10.2086 12.782C10.2316 12.647 10.1866 12.51 10.0886 12.415L9.0936 11.445C8.8476 11.206 8.9826 10.788 9.3226 10.738L10.6996 10.537C10.8346 10.517 10.9516 10.432 11.0116 10.31L11.6266 9.06303C11.7786 8.75503 12.2186 8.75503 12.3706 9.06303Z" stroke="#D4AF37" stroke-width="1.5" stroke-linecap="round" stroke-linejoin="round"/>
</svg>
