<svg width="24" height="24" viewBox="0 0 24 24" fill="none" xmlns="http://www.w3.org/2000/svg">
<path opacity="0.4" d="M11.3408 20.2901V11.8121C11.3408 11.4199 11.6591 11.1016 12.0513 11.1016C12.4435 11.1016 12.7618 11.4199 12.7618 11.8121V20.2901C12.7618 20.6823 12.4435 21.0006 12.0513 21.0006C11.6591 21.0006 11.3408 20.6823 11.3408 20.2901Z" fill="#D4AF37"/>
<path d="M6.60352 11.8118C6.60352 11.6792 6.64047 11.5484 6.71247 11.4329L11.4503 3.91456C11.581 3.70803 11.8074 3.58203 12.0518 3.58203C12.2963 3.58203 12.5227 3.70803 12.6534 3.91456L17.3912 11.4329C17.5286 11.6517 17.5371 11.9283 17.4111 12.1548C17.286 12.3821 17.0483 12.5223 16.7896 12.5223H7.31404C7.05541 12.5223 6.81762 12.3821 6.69257 12.1548C6.63289 12.0477 6.60352 11.9293 6.60352 11.8118Z" stroke="#D4AF37"/>
</svg>
