<svg width="24" height="24" viewBox="0 0 24 24" fill="none" xmlns="http://www.w3.org/2000/svg">
<path opacity="0.4" d="M15.7974 10.8077L19.4966 10.4805C20.3268 10.4805 20.9999 11.1602 20.9999 11.9984C20.9999 12.8367 20.3268 13.5163 19.4966 13.5163L15.7974 13.1892C15.1462 13.1892 14.6182 12.656 14.6182 11.9984C14.6182 11.3397 15.1462 10.8077 15.7974 10.8077Z" fill="#D4AF37"/>
<path d="M3.37527 10.8698C3.43309 10.8115 3.64908 10.5647 3.85199 10.3598C5.03561 9.07656 8.12612 6.97815 9.74283 6.33596C9.98828 6.23352 10.609 6.01542 10.9417 6C11.2591 6 11.5624 6.0738 11.8515 6.2192C12.2126 6.42299 12.5006 6.74463 12.6599 7.12355C12.7613 7.38572 12.9206 8.17331 12.9206 8.18763C13.0788 9.04792 13.1649 10.4469 13.1649 11.9934C13.1649 13.465 13.0788 14.8067 12.9489 15.6813C12.9348 15.6967 12.7755 16.6738 12.602 17.0086C12.2846 17.6211 11.6639 18 10.9995 18H10.9417C10.5086 17.9857 9.59883 17.6057 9.59883 17.5924C8.0683 16.9502 5.05089 14.9532 3.83781 13.6258C3.83781 13.6258 3.49527 13.2844 3.34691 13.0718C3.11564 12.7656 3 12.3866 3 12.0077C3 11.5847 3.12982 11.1915 3.37527 10.8698Z" stroke="#D4AF37"/>
</svg>
