<svg width="24" height="24" viewBox="0 0 24 24" fill="none" xmlns="http://www.w3.org/2000/svg">
<path d="M3 9.25781V16.8708C3 20.0308 4.99561 22.0008 8.12733 22.0008H15.8628C19.0241 22.0008 21 20.0708 21 16.9318V9.25781H3Z" stroke="#D4AF37"/>
<path opacity="0.4" d="M16.0506 18.0896C15.5962 18.0796 15.2307 17.6996 15.2307 17.2396C15.2208 16.7796 15.5863 16.4006 16.0408 16.3906H16.0506C16.515 16.3906 16.8904 16.7706 16.8904 17.2396C16.8904 17.7096 16.515 18.0896 16.0506 18.0896Z" fill="#D4AF37"/>
<path opacity="0.4" d="M12.0195 14.41C11.5651 14.431 11.1897 14.07 11.1699 13.611C11.1699 13.151 11.5256 12.771 11.98 12.75C12.4246 12.75 12.7901 13.101 12.8 13.55C12.8198 14.011 12.4641 14.391 12.0195 14.41Z" fill="#D4AF37"/>
<path opacity="0.4" d="M12.0195 18.0389C11.5651 18.0599 11.1897 17.6989 11.1699 17.2389C11.1699 16.7789 11.5256 16.3999 11.98 16.3789C12.4246 16.3789 12.7901 16.7299 12.8 17.1799C12.8198 17.6399 12.4641 18.0199 12.0195 18.0389Z" fill="#D4AF37"/>
<path opacity="0.4" d="M7.95899 14.41C7.50455 14.431 7.12913 14.07 7.10938 13.611C7.10938 13.151 7.46503 12.771 7.91947 12.75C8.36404 12.75 8.72957 13.101 8.73945 13.55C8.75921 14.011 8.40356 14.391 7.95899 14.41Z" fill="#D4AF37"/>
<path opacity="0.4" d="M7.94923 18.0389C7.49478 18.0599 7.11937 17.6989 7.09961 17.2389C7.09961 16.7789 7.45526 16.3999 7.90971 16.3789C8.35427 16.3789 8.71981 16.7299 8.72969 17.1799C8.74944 17.6399 8.39379 18.0199 7.94923 18.0389Z" fill="#D4AF37"/>
<path opacity="0.4" d="M15.2402 13.6017C15.2402 13.1417 15.5959 12.7717 16.0503 12.7617C16.4949 12.7617 16.8506 13.1207 16.8703 13.5617C16.8802 14.0217 16.5245 14.4017 16.08 14.4107C15.6255 14.4207 15.2501 14.0707 15.2402 13.6117V13.6017Z" fill="#D4AF37"/>
<path opacity="0.4" d="M3.00293 9.25528C3.01577 8.66828 3.06517 7.50328 3.15803 7.12828C3.63224 5.01928 5.24256 3.67928 7.54442 3.48828H16.4555C18.7376 3.68928 20.3677 5.03828 20.8419 7.12828C20.9338 7.49328 20.9832 8.66728 20.996 9.25528H3.00293Z" fill="#D4AF37"/>
<path d="M8.30465 6.59C8.73934 6.59 9.06534 6.261 9.06534 5.82V2.771C9.06534 2.33 8.73934 2 8.30465 2C7.86996 2 7.54395 2.33 7.54395 2.771V5.82C7.54395 6.261 7.86996 6.59 8.30465 6.59Z" stroke="#D4AF37"/>
<path d="M15.6953 6.59C16.1201 6.59 16.456 6.261 16.456 5.82V2.771C16.456 2.33 16.1201 2 15.6953 2C15.2606 2 14.9346 2.33 14.9346 2.771V5.82C14.9346 6.261 15.2606 6.59 15.6953 6.59Z" stroke="#D4AF37"/>
</svg>
