<svg width="24" height="24" viewBox="0 0 24 24" fill="none" xmlns="http://www.w3.org/2000/svg">
<path opacity="0.4" d="M13.3051 5.88243V6.06547C12.8144 6.05584 12.3237 6.05584 11.8331 6.05584V5.89206C11.8331 5.22733 11.2737 4.68784 10.6064 4.68784H9.63482C8.52589 4.68784 7.62305 3.80152 7.62305 2.72254C7.62305 2.32755 7.95671 2 8.35906 2C8.77123 2 9.09508 2.32755 9.09508 2.72254C9.09508 3.01155 9.34042 3.24276 9.63482 3.24276H10.6064C12.0882 3.2524 13.2953 4.43736 13.3051 5.88243Z" fill="#D4AF37"/>
<path opacity="0.4" fill-rule="evenodd" clip-rule="evenodd" d="M9.82152 14.7455H10.8519C11.2543 14.7455 11.588 14.4276 11.588 14.023C11.588 13.628 11.2543 13.3004 10.8519 13.3004H9.82152V12.2889C9.82152 11.8939 9.48786 11.5664 9.08551 11.5664C8.67334 11.5664 8.34949 11.8939 8.34949 12.2889V13.3004H7.30926C6.9069 13.3004 6.57324 13.628 6.57324 14.023C6.57324 14.4276 6.9069 14.7455 7.30926 14.7455H8.34949V15.7667C8.34949 16.1617 8.67334 16.4892 9.08551 16.4892C9.48786 16.4892 9.82152 16.1617 9.82152 15.7667V14.7455ZM15.1208 13.1174H15.0227C14.6105 13.1174 14.2867 12.7995 14.2867 12.3949C14.2867 11.9999 14.6105 11.6723 15.0227 11.6723H15.1208C15.5232 11.6723 15.8569 11.9999 15.8569 12.3949C15.8569 12.7995 15.5232 13.1174 15.1208 13.1174ZM16.799 16.4314H16.7008C16.2886 16.4314 15.9648 16.1135 15.9648 15.7089C15.9648 15.3139 16.2886 14.9864 16.7008 14.9864H16.799C17.2013 14.9864 17.535 15.3139 17.535 15.7089C17.535 16.1135 17.2013 16.4314 16.799 16.4314Z" fill="#D4AF37"/>
<path d="M16.1119 6.09323C15.1698 6.08359 14.2375 6.06433 13.3052 6.06433C12.8145 6.05469 12.3238 6.05469 11.8332 6.05469C10.4985 6.05469 9.18351 6.07396 7.89794 6.09323C4.48283 6.09323 2 8.52095 2 11.8735V16.1798C2 19.5324 4.48283 21.9601 7.88813 21.9601C9.25221 21.989 10.6359 21.9986 12.0098 21.9986C13.3837 21.9986 14.7478 21.989 16.1119 21.9601C19.5172 21.9601 22 19.5324 22 16.1798V11.8735C22 8.52095 19.5172 6.09323 16.1119 6.09323Z" stroke="#D4AF37"/>
</svg>
