<svg width="24" height="24" viewBox="0 0 24 24" fill="none" xmlns="http://www.w3.org/2000/svg">
<path d="M15.5664 2.99489C13.402 1.68946 10.7165 1.66727 8.53162 2.93677C6.34676 4.20627 4.99855 6.57225 5 9.13442C5.06583 11.016 5.69859 12.8314 6.81233 14.334C8.14333 16.134 9.78243 17.6746 11.6508 18.8814C11.7693 18.9534 11.9036 18.9941 12.0415 19C12.1847 18.9777 12.3228 18.9289 12.4488 18.856C13.6726 18.0528 14.7998 17.1064 15.8075 16.0361C17.5533 14.19 18.95 11.8019 18.9998 9.26144C19.012 6.70418 17.7095 4.32691 15.5664 2.99489Z" stroke="#D4AF37"/>
<path opacity="0.4" d="M11.992 11.6916C11.0295 11.6916 10.162 11.1006 9.79452 10.1946C9.427 9.28848 9.63194 8.2461 10.3137 7.5541C10.9954 6.8621 12.0194 6.65699 12.9076 7.03453C13.7958 7.41207 14.373 8.29779 14.3696 9.27814C14.3718 9.92039 14.1218 10.5369 13.6752 10.9903C13.2285 11.4436 12.6225 11.6962 11.992 11.6916Z" fill="#D4AF37"/>
<path opacity="0.4" d="M12 22C14.7614 22 17 21.5523 17 21C17 20.4477 14.7614 20 12 20C9.23858 20 7 20.4477 7 21C7 21.5523 9.23858 22 12 22Z" fill="#D4AF37"/>
</svg>
