<svg width="24" height="24" viewBox="0 0 24 24" fill="none" xmlns="http://www.w3.org/2000/svg">
<path opacity="0.4" d="M6.447 22C3.996 22 2 19.9698 2 17.4755V12.5144C2 10.0252 3.99 8 6.437 8H17.553C20.005 8 22 10.0302 22 12.5256V17.4846C22 19.9748 20.01 22 17.563 22H16.623H6.447Z" fill="#D4AF37"/>
<path d="M11.455 2.22108L8.54604 5.06687C8.24604 5.36099 8.24604 5.83432 8.54804 6.12747C8.85004 6.41964 9.33704 6.41867 9.63704 6.12552L11.23 4.56628V6.06124V14.4515C11.23 14.8654 11.575 15.2014 12 15.2014C12.426 15.2014 12.77 14.8654 12.77 14.4515V4.56628L14.363 6.12552C14.663 6.41867 15.15 6.41964 15.452 6.12747C15.603 5.98041 15.679 5.78854 15.679 5.59571C15.679 5.40482 15.603 5.21296 15.454 5.06687L12.546 2.22108C12.401 2.07986 12.205 2 12 2C11.796 2 11.6 2.07986 11.455 2.22108Z" fill="#D4AF37"/>
</svg>
