<svg width="24" height="24" viewBox="0 0 24 24" fill="none" xmlns="http://www.w3.org/2000/svg">
<path d="M11.9488 14.5391C8.49884 14.5391 5.58789 15.1029 5.58789 17.2786C5.58789 19.4553 8.51765 19.9992 11.9488 19.9992C15.3988 19.9992 18.3098 19.4355 18.3098 17.2597C18.3098 15.0831 15.38 14.5391 11.9488 14.5391Z" fill="#D4AF37"/>
<path opacity="0.4" d="M11.9495 12.467C14.2856 12.467 16.1588 10.5831 16.1588 8.23351C16.1588 5.88306 14.2856 4 11.9495 4C9.61341 4 7.74023 5.88306 7.74023 8.23351C7.74023 10.5831 9.61341 12.467 11.9495 12.467Z" fill="#D4AF37"/>
<path opacity="0.4" d="M21.0876 9.21972C21.692 6.84225 19.92 4.70703 17.6635 4.70703C17.4182 4.70703 17.1836 4.73405 16.9544 4.77998C16.9239 4.78718 16.8899 4.80249 16.872 4.82951C16.8514 4.86373 16.8666 4.90966 16.889 4.93938C17.5668 5.89577 17.9563 7.06019 17.9563 8.31016C17.9563 9.5079 17.5991 10.6246 16.9723 11.5513C16.9078 11.6467 16.9651 11.7755 17.0788 11.7953C17.2364 11.8232 17.3976 11.8376 17.5624 11.8421C19.2054 11.8854 20.6802 10.8218 21.0876 9.21972Z" fill="#D4AF37"/>
<path d="M22.8094 14.8165C22.5086 14.1717 21.7824 13.7295 20.6783 13.5125C20.1572 13.3846 18.747 13.2045 17.4352 13.2288C17.4155 13.2315 17.4048 13.245 17.403 13.254C17.4003 13.2666 17.4057 13.2882 17.4316 13.3017C18.0378 13.6034 20.3811 14.9155 20.0865 17.6829C20.074 17.8027 20.1698 17.9063 20.2888 17.8883C20.8655 17.8054 22.3492 17.4848 22.8094 16.4861C23.0637 15.9584 23.0637 15.3451 22.8094 14.8165Z" fill="#D4AF37"/>
<path opacity="0.4" d="M7.04411 4.77997C6.81578 4.73314 6.58028 4.70703 6.33494 4.70703C4.07853 4.70703 2.30653 6.84225 2.91182 9.21971C3.31834 10.8218 4.79307 11.8853 6.43613 11.8421C6.60088 11.8376 6.76294 11.8223 6.91964 11.7953C7.03335 11.7755 7.09067 11.6467 7.0262 11.5512C6.39942 10.6236 6.04215 9.50789 6.04215 8.31015C6.04215 7.05928 6.43254 5.89486 7.11036 4.93937C7.13185 4.90965 7.14796 4.86372 7.12647 4.8295C7.10857 4.80159 7.07545 4.78718 7.04411 4.77997Z" fill="#D4AF37"/>
<path d="M3.32156 13.5117C2.21752 13.7287 1.49225 14.1709 1.19139 14.8157C0.936203 15.3443 0.936203 15.9576 1.19139 16.4862C1.65163 17.4841 3.13531 17.8056 3.71195 17.8875C3.83104 17.9055 3.92595 17.8028 3.91342 17.6822C3.61883 14.9157 5.9621 13.6036 6.56918 13.3019C6.59425 13.2875 6.59962 13.2667 6.59694 13.2532C6.59515 13.2442 6.5853 13.2307 6.5656 13.2289C5.25294 13.2037 3.84358 13.3838 3.32156 13.5117Z" fill="#D4AF37"/>
</svg>
