<svg width="24" height="24" viewBox="0 0 24 24" fill="none" xmlns="http://www.w3.org/2000/svg">
<path opacity="0.4" d="M12.6593 3.71052V12.1885C12.6593 12.5807 12.341 12.899 11.9488 12.899C11.5566 12.899 11.2383 12.5807 11.2383 12.1885V3.71052C11.2383 3.31831 11.5566 3 11.9488 3C12.341 3 12.6593 3.31831 12.6593 3.71052Z" fill="#D4AF37"/>
<mask id="mask0_125_2849" style="mask-type:alpha" maskUnits="userSpaceOnUse" x="6" y="11" width="12" height="10">
<path fill-rule="evenodd" clip-rule="evenodd" d="M6.5 11.4805H17.3964V20.4199H6.5V11.4805Z" fill="white"/>
</mask>
<g mask="url(#mask0_125_2849)">
<path d="M17.3967 12.191C17.3967 12.3236 17.3597 12.4544 17.2877 12.5699L12.5499 20.0882C12.4192 20.2948 12.1928 20.4208 11.9484 20.4208C11.7039 20.4208 11.4775 20.2948 11.3468 20.0882L6.609 12.5699C6.47163 12.3511 6.4631 12.0745 6.5891 11.848C6.71416 11.6207 6.95195 11.4805 7.21058 11.4805H16.6862C16.9448 11.4805 17.1826 11.6207 17.3076 11.848C17.3673 11.9551 17.3967 12.0735 17.3967 12.191Z" fill="#D4AF37"/>
</g>
</svg>
