<svg width="24" height="24" viewBox="0 0 24 24" fill="none" xmlns="http://www.w3.org/2000/svg">
<path opacity="0.4" d="M20.2891 12.6593H11.8111C11.4189 12.6593 11.1006 12.341 11.1006 11.9488C11.1006 11.5566 11.4189 11.2383 11.8111 11.2383H20.2891C20.6813 11.2383 20.9996 11.5566 20.9996 11.9488C20.9996 12.341 20.6813 12.6593 20.2891 12.6593Z" fill="#D4AF37"/>
<mask id="mask0_125_2868" style="mask-type:alpha" maskUnits="userSpaceOnUse" x="3" y="6" width="10" height="12">
<path fill-rule="evenodd" clip-rule="evenodd" d="M12.5215 6.5V17.3964H3.58203V6.5H12.5215Z" fill="white"/>
</mask>
<g mask="url(#mask0_125_2868)">
<path d="M11.8109 17.3967C11.6782 17.3967 11.5475 17.3598 11.4319 17.2878L3.91358 12.55C3.70705 12.4193 3.58105 12.1928 3.58105 11.9484C3.58105 11.704 3.70705 11.4776 3.91358 11.3468L11.4319 6.609C11.6508 6.47163 11.9274 6.46311 12.1538 6.58911C12.3812 6.71416 12.5214 6.95195 12.5214 7.21058V16.6862C12.5214 16.9448 12.3812 17.1826 12.1538 17.3077C12.0468 17.3674 11.9283 17.3967 11.8109 17.3967Z" fill="#D4AF37"/>
</g>
</svg>
