<svg width="24" height="24" viewBox="0 0 24 24" fill="none" xmlns="http://www.w3.org/2000/svg">
<path d="M7.21433 13.1313L14.0624 8.9121C14.2158 8.81809 14.4122 8.82709 14.5558 8.9381C15.2064 9.43912 15.7877 9.94715 16.1755 10.3741C16.1755 10.3741 16.5096 10.7161 16.6542 10.9331C16.8877 11.2292 17 11.6162 17 11.9922C17 12.4142 16.8769 12.8132 16.6317 13.1323C16.576 13.1893 16.364 13.4403 16.1638 13.6453C14.9954 14.9213 11.9455 17.0295 10.3414 17.6685C10.1079 17.7715 9.48466 17.9865 9.16131 17.9985C8.84967 17.9985 8.54879 17.9305 8.25962 17.7815C7.90403 17.5765 7.62561 17.2585 7.46931 16.8814C7.36869 16.6194 7.21336 15.8334 7.21336 15.8104C7.11274 15.2494 7.03751 14.4613 7.00039 13.5413C6.99355 13.3763 7.07659 13.2163 7.21433 13.1313Z" fill="#D4AF37"/>
<path opacity="0.4" d="M7.67252 10.8603C7.37066 11.0473 6.99064 10.8083 7.00529 10.4493C7.04144 9.60718 7.10396 8.86515 7.18016 8.31312C7.19188 8.30112 7.34721 7.32207 7.52598 6.99105C7.83762 6.37602 8.44916 6 9.10662 6H9.16132C9.5853 6.011 10.487 6.38702 10.487 6.41002C10.9412 6.59903 11.5342 6.91905 12.1721 7.30407C12.4594 7.47808 12.4662 7.9051 12.179 8.08211L7.67252 10.8603Z" fill="#D4AF37"/>
</svg>
