<svg width="24" height="24" viewBox="0 0 24 24" fill="none" xmlns="http://www.w3.org/2000/svg">
<path opacity="0.4" d="M16.084 2H7.916C4.377 2 2 4.276 2 7.665V16.335C2 19.724 4.377 22 7.916 22H16.084C19.622 22 22 19.723 22 16.334V7.665C22 4.276 19.622 2 16.084 2Z" fill="#D4AF37"/>
<path d="M11.1442 7.72228L7.37924 11.4703C7.09624 11.7523 7.09624 12.2513 7.37924 12.5343L11.1442 16.2823C11.4382 16.5743 11.9132 16.5733 12.2052 16.2793C12.4972 15.9853 12.4972 15.5113 12.2032 15.2183L9.72624 12.7513H16.0812C16.4962 12.7513 16.8312 12.4153 16.8312 12.0013C16.8312 11.5873 16.4962 11.2513 16.0812 11.2513H9.72624L12.2032 8.78528C12.3502 8.63828 12.4232 8.44628 12.4232 8.25328C12.4232 8.06228 12.3502 7.87028 12.2052 7.72428C11.9132 7.43128 11.4382 7.43028 11.1442 7.72228Z" fill="#D4AF37"/>
</svg>
