<svg width="24" height="24" viewBox="0 0 24 24" fill="none" xmlns="http://www.w3.org/2000/svg">
<path d="M16.7857 10.8672L9.93756 15.0865C9.78418 15.1805 9.58782 15.1715 9.44422 15.0605C8.7936 14.5594 8.21234 14.0514 7.82451 13.6244C7.82451 13.6244 7.49041 13.2824 7.34582 13.0654C7.11234 12.7693 7 12.3823 7 12.0063C7 11.5843 7.12309 11.1853 7.36829 10.8662C7.42398 10.8092 7.63597 10.5582 7.83623 10.3532C9.00461 9.07715 12.0545 6.96905 13.6586 6.33002C13.8921 6.22701 14.5153 6.012 14.8387 6C15.1503 6 15.4512 6.068 15.7404 6.21701C16.096 6.42202 16.3744 6.74004 16.5307 7.11706C16.6313 7.37907 16.7866 8.16511 16.7866 8.18811C16.8873 8.74914 16.9625 9.53718 16.9996 10.4572C17.0064 10.6222 16.9234 10.7822 16.7857 10.8672Z" fill="#D4AF37"/>
<path opacity="0.4" d="M16.3279 13.1395C16.6297 12.9525 17.0098 13.1915 16.9951 13.5505C16.959 14.3926 16.8964 15.1346 16.8202 15.6867C16.8085 15.6987 16.6532 16.6777 16.4744 17.0087C16.1628 17.6237 15.5512 17.9998 14.8938 17.9998H14.8391C14.4151 17.9888 13.5134 17.6127 13.5134 17.5897C13.0592 17.4007 12.4662 17.0807 11.8283 16.6957C11.541 16.5217 11.5342 16.0947 11.8214 15.9177L16.3279 13.1395Z" fill="#D4AF37"/>
</svg>
