<svg width="24" height="24" viewBox="0 0 24 24" fill="none" xmlns="http://www.w3.org/2000/svg">
<path d="M10.1528 5.55437C10.2037 5.65803 10.2373 5.76905 10.2524 5.88318L10.5308 10.0231L10.669 12.1039C10.6705 12.3179 10.704 12.5305 10.7687 12.7349C10.9356 13.1314 11.3372 13.3834 11.7741 13.3659L18.4313 12.9304C18.7196 12.9257 18.998 13.0335 19.2052 13.2301C19.3779 13.394 19.4894 13.6084 19.5246 13.839L19.5364 13.979C19.2609 17.7938 16.4592 20.9755 12.6524 21.7969C8.84555 22.6182 4.94186 20.8832 3.06071 17.5338C2.51839 16.5607 2.17965 15.4911 2.06438 14.3878C2.01623 14.0612 1.99503 13.7314 2.00098 13.4014C1.99503 9.31157 4.90747 5.7758 8.98433 4.92341C9.47501 4.847 9.95603 5.10676 10.1528 5.55437Z" fill="#D4AF37"/>
<path opacity="0.4" d="M12.8706 2.00082C17.4305 2.11683 21.2629 5.39579 22.0006 9.81229L21.9935 9.84488L21.9734 9.89227L21.9762 10.0224C21.9657 10.1947 21.8992 10.3605 21.7845 10.4945C21.6651 10.634 21.5019 10.729 21.3222 10.7659L21.2126 10.7809L13.5318 11.2786C13.2763 11.3038 13.0219 11.2214 12.8319 11.052C12.6736 10.9107 12.5724 10.7201 12.5438 10.5147L12.0282 2.84506C12.0193 2.81913 12.0193 2.79102 12.0282 2.76508C12.0353 2.55367 12.1283 2.35384 12.2866 2.21023C12.4449 2.06662 12.6552 1.9912 12.8706 2.00082Z" fill="#D4AF37"/>
</svg>
