<svg width="24" height="24" viewBox="0 0 24 24" fill="none" xmlns="http://www.w3.org/2000/svg">
<path fill-rule="evenodd" clip-rule="evenodd" d="M7.7688 8.71484H16.2312C18.5886 8.71484 20.5 10.5841 20.5 12.8895V17.8264C20.5 20.1318 18.5886 22.001 16.2312 22.001H7.7688C5.41136 22.001 3.5 20.1318 3.5 17.8264V12.8895C3.5 10.5841 5.41136 8.71484 7.7688 8.71484ZM11.9949 17.3305C12.4928 17.3305 12.8891 16.9429 12.8891 16.456V14.2499C12.8891 13.773 12.4928 13.3854 11.9949 13.3854C11.5072 13.3854 11.1109 13.773 11.1109 14.2499V16.456C11.1109 16.9429 11.5072 17.3305 11.9949 17.3305Z" fill="#D4AF37"/>
<path opacity="0.4" d="M17.523 7.39595V8.86667C17.1673 8.7673 16.7913 8.71761 16.4052 8.71761H15.7447V7.39595C15.7447 5.37868 14.0681 3.73903 12.0053 3.73903C9.94257 3.73903 8.26594 5.36874 8.25578 7.37608V8.71761H7.60545C7.20916 8.71761 6.83319 8.7673 6.47754 8.87661V7.39595C6.4877 4.41476 8.95692 2 11.985 2C15.0537 2 17.523 4.41476 17.523 7.39595Z" fill="#D4AF37"/>
</svg>
