<svg width="24" height="24" viewBox="0 0 24 24" fill="none" xmlns="http://www.w3.org/2000/svg">
<path opacity="0.4" fill-rule="evenodd" clip-rule="evenodd" d="M9.18824 3.74722C9.18824 3.33438 8.84724 3 8.42724 3H8.42624L6.79724 3.00098C4.60624 3.00294 2.82324 4.75331 2.82324 6.90279V8.76201C2.82324 9.17386 3.16424 9.50923 3.58424 9.50923C4.00424 9.50923 4.34624 9.17386 4.34624 8.76201V6.90279C4.34624 5.57604 5.44624 4.4964 6.79824 4.49444L8.42724 4.49345C8.84824 4.49345 9.18824 4.15907 9.18824 3.74722ZM17.1931 3.00029H15.6001C15.1801 3.00029 14.8391 3.33468 14.8391 3.74751C14.8391 4.15936 15.1801 4.49277 15.6001 4.49277H17.1931C18.5501 4.49277 19.6541 5.57535 19.6541 6.90603V8.7623C19.6541 9.17415 19.9951 9.50952 20.4151 9.50952C20.8361 9.50952 21.1761 9.17415 21.1761 8.7623V6.90603C21.1761 4.75165 19.3901 3.00029 17.1931 3.00029ZM9.23804 6.74266H14.762C15.367 6.74266 15.948 6.98094 16.371 7.40554C16.797 7.83407 17.033 8.40968 17.032 9.00883V10.2542C17.027 10.4003 16.908 10.5189 16.759 10.5229H7.23904C7.09104 10.518 6.97204 10.3993 6.96904 10.2542V9.00883C6.95804 7.76837 7.97404 6.75541 9.23804 6.74266Z" fill="#D4AF37"/>
<path d="M22.239 12.043H1.762C1.342 12.043 1 12.3773 1 12.7902C1 13.202 1.342 13.5354 1.762 13.5354H2.823V17.0989C2.823 19.2484 4.607 20.9988 6.798 21.0007L8.427 21.0017C8.848 21.0017 9.188 20.6673 9.189 20.2545C9.189 19.8427 8.848 19.5083 8.428 19.5083L6.8 19.5073C5.447 19.5053 4.346 18.4257 4.346 17.0989V13.5354H6.969V14.5268C6.959 15.7673 7.974 16.7812 9.238 16.793H14.762C16.027 16.7812 17.042 15.7673 17.032 14.5268V13.5354H19.655V17.095C19.655 18.4267 18.551 19.5083 17.194 19.5083H15.601C15.18 19.5083 14.839 19.8427 14.839 20.2545C14.839 20.6673 15.18 21.0017 15.601 21.0017H17.194C19.39 21.0017 21.177 19.2504 21.177 17.095V13.5354H22.239C22.659 13.5354 23 13.202 23 12.7902C23 12.3773 22.659 12.043 22.239 12.043Z" fill="#D4AF37"/>
</svg>
