<svg width="24" height="24" viewBox="0 0 24 24" fill="none" xmlns="http://www.w3.org/2000/svg">
<path d="M11.8251 15.2171H12.1748C14.0987 15.2171 15.731 13.985 16.3054 12.2764C16.3887 12.0276 16.1979 11.7713 15.9334 11.7713H14.8562C14.5133 11.7713 14.2362 11.4977 14.2362 11.16C14.2362 10.8213 14.5133 10.5467 14.8562 10.5467H15.9005C16.2463 10.5467 16.5263 10.2703 16.5263 9.92875C16.5263 9.58722 16.2463 9.31075 15.9005 9.31075H14.8562C14.5133 9.31075 14.2362 9.03619 14.2362 8.69849C14.2362 8.35984 14.5133 8.08528 14.8562 8.08528H15.9005C16.2463 8.08528 16.5263 7.8088 16.5263 7.46728C16.5263 7.12575 16.2463 6.84928 15.9005 6.84928H14.8562C14.5133 6.84928 14.2362 6.57472 14.2362 6.23606C14.2362 5.89837 14.5133 5.62381 14.8562 5.62381H15.9886C16.2483 5.62381 16.4343 5.3789 16.3645 5.13113C15.8501 3.32401 14.1694 2 12.1748 2H11.8251C9.42172 2 7.47363 3.92287 7.47363 6.29729V10.9198C7.47363 13.2933 9.42172 15.2171 11.8251 15.2171Z" fill="#D4AF37"/>
<path opacity="0.4" d="M19.5313 9.82422C18.9966 9.82422 18.5626 10.2518 18.5626 10.7808C18.5626 14.3539 15.6186 17.2612 12.0005 17.2612C8.38136 17.2612 5.43743 14.3539 5.43743 10.7808C5.43743 10.2518 5.00345 9.82422 4.46872 9.82422C3.93398 9.82422 3.5 10.2518 3.5 10.7808C3.5 15.0858 6.79945 18.6398 11.0318 19.1171V21.0419C11.0318 21.57 11.4648 21.9986 12.0005 21.9986C12.5352 21.9986 12.9692 21.57 12.9692 21.0419V19.1171C17.2006 18.6398 20.5 15.0858 20.5 10.7808C20.5 10.2518 20.066 9.82422 19.5313 9.82422Z" fill="#D4AF37"/>
</svg>
