<svg width="24" height="24" viewBox="0 0 24 24" fill="none" xmlns="http://www.w3.org/2000/svg">
<path d="M13.3571 6.45056C13.3068 5.96422 13.2543 5.45963 13.1254 4.95611C12.7741 3.75153 11.801 3.00001 10.7576 3.00001C10.1757 2.99786 9.43954 3.35644 9.0222 3.71932L5.56287 6.61697H3.75194C2.41918 6.61697 1.34751 7.6444 1.14513 9.12705C0.973162 10.5506 0.931218 13.2379 1.14513 14.8042C1.33073 16.3706 2.35416 17.383 3.75194 17.383H5.56287L9.08931 20.3236C9.45107 20.6382 10.0897 20.9989 10.6769 20.9989C10.7146 21 10.7482 21 10.7817 21C11.845 21 12.7814 20.2206 13.1327 19.0192C13.2659 18.5082 13.312 18.0293 13.3571 17.5666L13.4043 17.1082C13.5846 15.6213 13.5846 8.36908 13.4043 6.89288L13.3571 6.45056Z" fill="#D4AF37"/>
<path opacity="0.4" d="M17.4069 6.49321C17.1185 6.06806 16.547 5.96178 16.1286 6.25702C15.7144 6.5544 15.6117 7.14059 15.9 7.56466C16.7022 8.74669 17.1437 10.3206 17.1437 11.9986C17.1437 13.6756 16.7022 15.2505 15.9 16.4326C15.6117 16.8566 15.7144 17.4428 16.1297 17.7402C16.2849 17.8497 16.4663 17.9077 16.6529 17.9077C16.9539 17.9077 17.2349 17.7563 17.4069 17.504C18.4198 16.0117 18.9787 14.0567 18.9787 11.9986C18.9787 9.94054 18.4198 7.98551 17.4069 6.49321Z" fill="#D4AF37"/>
<path opacity="0.4" d="M20.5672 3.45824C20.2809 3.03417 19.7073 2.92573 19.29 3.22205C18.8758 3.51943 18.773 4.10562 19.0603 4.52969C20.4172 6.52874 21.1649 9.18267 21.1649 12.0009C21.1649 14.8202 20.4172 17.4741 19.0603 19.4732C18.773 19.8983 18.8758 20.4834 19.291 20.7808C19.4462 20.8903 19.6266 20.9483 19.8132 20.9483C20.1142 20.9483 20.3963 20.7969 20.5672 20.5446C22.1359 18.2353 22.9999 15.2013 22.9999 12.0009C22.9999 8.80262 22.1359 5.76755 20.5672 3.45824Z" fill="#D4AF37"/>
</svg>
